<?xml version="1.0" encoding="utf-8"?>
<!-- Generator: Adobe Adobe Illustrator 24.2.0, SVG Export Plug-In . SVG Version: 6.00 Build 0)  -->
<svg version="1.1" id="Layer_1" xmlns="http://www.w3.org/2000/svg" xmlns:xlink="http://www.w3.org/1999/xlink" x="0px" y="0px"
	 width="560px" height="288px" viewBox="0 0 560 288" style="enable-background:new 0 0 560 288;" xml:space="preserve">
<style type="text/css">
	.st0{display:none;fill:#191919;stroke:#000000;stroke-miterlimit:10;}
	.st1{fill:#E57B2C;}
	.st2{fill:#3366CC;}
	.st3{fill:#36B0CC;}
	.st4{fill:#E0E0E0;}
	.st5{font-family:'Grandissimo';}
	.st6{font-size:11.7776px;}
</style>
<rect y="0" class="st0" width="560" height="288"/>
<g>
	<polygon class="st1" points="446.38,49.39 404.14,207.1 440.75,207.1 483,49.39 	"/>
	<polygon class="st2" points="497.08,49.39 454.83,207.1 479.24,207.1 521.49,49.39 	"/>
	<polygon class="st3" points="531.81,49.39 489.57,207.1 506.47,207.1 548.71,49.39 	"/>
	<!-- <text transform="matrix(1 0 0 1 62.8255 239.2988)" class="st4 st5 st6">ONTARIO</text>
	<text transform="matrix(1 0 0 1 242.0042 239.2988)" class="st4 st5 st6">TECH</text>
	<text transform="matrix(1 0 0 1 377.1859 239.2988)" class="st4 st5 st6">RACING</text> -->
	<g>
		<path class="st4" d="M249.24,66.06l-36.98,138h15.89L259.5,87.45c0.7-2.65,3.11-4.49,5.84-4.49h61.32l4.61-16.9H249.24z"/>
		<path class="st4" d="M344.54,95.46c0.37,7.55-5.65,13.78-13.12,13.78h-54.77l-9.78,36.42l-0.23,0.2l0.13,0.16l17.28,21.43
			l29.52,36.61l0.22-0.17l-0.05,0.17h57.1l4.04-15.02h-51.07l-3.05-3.76l-28.66-35.31l-2.89-3.56l1.25-4.42l3.43-12.1l1.06-3.76
			h36.47c16.59,0,30.04-13.45,30.04-30.04c0-14.54-10.33-26.66-24.05-29.44l-4.48,16.44C339.17,83.97,344.24,89.03,344.54,95.46z"/>
		<path class="st4" d="M165.09,66.06l-4.61,16.9h55.71c3.98,0,6.88,3.78,5.85,7.63l-30.5,113.47h16.03l36.98-138H165.09z"/>
		<path class="st4" d="M90.15,82.96h64.02l4.61-16.9H90.15C57.49,66.06,31,92.54,31,125.21c0,32.66,26.48,59.14,59.14,59.14
			s59.14-26.48,59.14-59.14c0-5.53-0.76-10.88-2.18-15.96h-17.85c2.02,4.93,3.13,10.32,3.13,15.96c0,7.5-1.95,14.54-5.39,20.65
			c-7.59,13.52-22.42,22.45-39.23,21.53c-21.61-1.18-39.03-18.93-39.84-40.56C47.03,102.76,66.28,82.96,90.15,82.96z"/>
		<path class="st4" d="M313.35,145.86h17.33c27.35,0,50.14-21.75,50.5-49.09c0.31-23.93-16.27-44.02-38.57-49.14l-4.2,15.41
			c15.31,3.22,26.81,16.8,26.81,33.07c0,18.66-15.13,33.8-33.8,33.8h-33.64l-4.42,15.66l32.25,39.73h50.28l4.8-17.84h-50.11
			L313.35,145.86z"/>
		<path class="st4" d="M331.42,46.35H170.46l-4.35,15.96h165.31c0.29,0,0.57,0.01,0.86,0.02l4.29-15.72
			C334.87,46.44,333.16,46.35,331.42,46.35z"/>
		<path class="st4" d="M151,109.25c1.33,5.1,2.05,10.44,2.05,15.96c0,34.74-28.16,62.9-62.9,62.9s-62.9-28.16-62.9-62.9
			s28.16-62.9,62.9-62.9h69.65l4.35-15.96H91.13c-43.48,0-79.52,34.77-79.84,78.26c-0.33,43.82,35.11,79.46,78.86,79.46
			c36.41,0,67.05-24.67,76.13-58.21c1.78-6.58,2.73-13.51,2.73-20.65c0-5.46-0.55-10.81-1.62-15.96H151z"/>
	</g>
</g>
</svg>
